<?xml version="1.0" encoding="utf-8"?>
<!-- Generator: Adobe Illustrator 26.0.0, SVG Export Plug-In . SVG Version: 6.00 Build 0)  -->
<svg version="1.1" id="Capa_1" xmlns="http://www.w3.org/2000/svg" xmlns:xlink="http://www.w3.org/1999/xlink" x="0px" y="0px"
	 viewBox="0 0 1366 768" style="enable-background:new 0 0 1366 768;" xml:space="preserve">
<style type="text/css">
	.st0{fill:#FFFFFF;}
	.st1{fill:#1F46A5;}
	.st2{fill:#DBDBDB;}
	.st3{fill:#757575;}
	.st4{fill:#FFFFFF;stroke:#000000;stroke-width:2;stroke-miterlimit:10;}
</style>
<rect x="-9" class="st0" width="1375" height="773"/>
<g>
	<rect x="333.76" y="270.58" class="st1" width="898.24" height="158.13"/>
</g>
<polygon class="st2" points="218.45,579.16 582.84,232 78,232 "/>
<polygon class="st3" points="222.45,559 586.84,211.84 82,211.84 "/>
<g>
	<g>
		<path class="st4" d="M418.47,326.74h-21.93v-16.66h66.16v16.66h-21.74v60.05h-22.5V326.74z"/>
		<path class="st4" d="M491.71,357.8v28.98h-21.82v-76.7h38.01c18.06,0,26.8,9.67,26.8,21.24c0,10.59-6.19,16.01-11.51,18.19
			c4.83,1.69,10,6.81,10,19.79v3.19c0,4.77,0.15,10.96,1,14.28h-21.42c-1.3-3.3-1.63-8.87-1.63-16.75v-1.98
			c0-6.62-1.58-10.25-11.5-10.25H491.71z M491.71,342.14h10.4c7.49,0,10.21-3.11,10.21-8.27c0-5.13-3.24-8.12-10.11-8.12h-10.5
			V342.14z"/>
		<path class="st4" d="M563.79,371.87l-4.44,14.92h-21.89l24.24-76.7h29.1l25.2,76.7h-23.47l-4.66-14.92H563.79z M583.92,355.21
			c-3.6-12.05-6.55-22.77-8.29-30.25h-0.31c-1.78,8.27-4.71,19.21-7.82,30.25H583.92z"/>
		<path class="st4" d="M622.48,386.79v-76.7h26.9c8.07,17.27,19.75,40.61,22.98,50.06h0.38c-0.85-7.96-1.05-21.51-1.05-33.75v-16.32
			h20.49v76.7h-25.63c-6.51-13.89-20.38-42.67-23.99-52.79h-0.3c0.71,7.21,0.78,22.06,0.78,35.56v17.23H622.48z"/>
		<path class="st4" d="M722.86,363.56c1.28,6.69,5.96,9.5,13.22,9.5c6.8,0,9.93-2.38,9.93-6.83c0-5.04-3.4-6.95-15.52-9.85
			c-22.63-5.48-27.14-13.74-27.14-24.07c0-12.87,9.46-23.65,30.81-23.65c22.2,0,31.26,11.26,32.33,23.36h-21.71
			c-0.59-4.11-2.7-8.31-10.67-8.31c-5.15,0-8.31,1.94-8.31,6.09c0,4.16,2.81,5.77,14.64,8.67c23.64,5.9,28.33,14.42,28.33,25.32
			c0,14.41-11.11,24.42-33.63,24.42c-21.21,0-32.45-9.9-34.15-24.66H722.86z"/>
		<path class="st4" d="M842.46,361.76c0-11.99,0.26-27.43,0.6-36.54h-0.6c-3.21,16.45-8.37,39.23-13.98,61.57h-18
			c-4.41-21.66-9.44-44.49-12.43-61.56h-0.67c0.63,9.02,1.04,23.99,1.04,37.14v24.42h-20.01v-76.7h32.36
			c3.78,15.52,8.2,38.02,9.92,49.36h0.39c1.97-12.33,7.09-32.69,11.55-49.36h31.43v76.7h-21.6V361.76z"/>
		<path class="st4" d="M877.88,310.08h32.95c24.41,0,38.57,15.44,38.57,37.51c0,22.12-13.79,39.2-38.92,39.2h-32.6V310.08z
			 M900.38,370.51h8.61c12.2,0,17.2-8.55,17.2-22.92c0-12.7-4.66-21.23-16.93-21.23h-8.88V370.51z"/>
		<path class="st4" d="M982.39,310.08v76.7h-22.54v-76.7H982.39z"/>
		<path class="st4" d="M1065.72,361.55c-2.81,16.04-14.58,26.66-35.63,26.66c-25.12,0-37.26-16.96-37.26-39.22
			c0-21.71,12-40.34,38.35-40.34c22.54,0,32.81,13.11,34.31,26.38h-22.31c-1.02-5.54-4.22-10.59-12.53-10.59
			c-10.92,0-14.65,10.37-14.65,23.76c0,12.16,3.1,24.17,14.9,24.17c8.94,0,11.44-6.49,12.39-10.82H1065.72z"/>
		<path class="st4" d="M1094.18,371.87l-4.44,14.92h-21.89l24.24-76.7h29.1l25.2,76.7h-23.47l-4.66-14.92H1094.18z M1114.31,355.21
			c-3.6-12.05-6.55-22.77-8.29-30.25h-0.31c-1.78,8.27-4.71,19.21-7.82,30.25H1114.31z"/>
		<path class="st4" d="M1169.72,363.56c1.28,6.69,5.96,9.5,13.22,9.5c6.8,0,9.93-2.38,9.93-6.83c0-5.04-3.4-6.95-15.52-9.85
			c-22.63-5.48-27.14-13.74-27.14-24.07c0-12.87,9.46-23.65,30.81-23.65c22.2,0,31.26,11.26,32.33,23.36h-21.71
			c-0.59-4.11-2.7-8.31-10.67-8.31c-5.15,0-8.31,1.94-8.31,6.09c0,4.16,2.81,5.77,14.64,8.67c23.64,5.9,28.33,14.42,28.33,25.32
			c0,14.41-11.11,24.42-33.63,24.42c-21.21,0-32.45-9.9-34.15-24.66H1169.72z"/>
	</g>
</g>
<g>
	<g>
		<path d="M1093.31,465.09c0.86,3.81,3.6,5.48,7.98,5.48c4.38,0,6.25-1.73,6.25-4.5c0-3.09-1.83-4.42-8.31-5.93
			c-10.32-2.42-12.87-6.17-12.87-11.29c0-6.61,4.94-11.1,13.92-11.1c10.07,0,14.08,5.41,14.62,10.96h-8.26
			c-0.4-2.33-1.69-4.87-6.57-4.87c-3.33,0-5.34,1.38-5.34,4.07c0,2.64,1.61,3.71,7.74,5.13c11.03,2.6,13.44,6.7,13.44,12.04
			c0,6.92-5.24,11.67-15.26,11.67c-9.62,0-14.69-4.74-15.6-11.65H1093.31z"/>
		<path d="M1120.84,476.2v-9.66h8.46v9.66H1120.84z"/>
		<path d="M1144.5,461.03v15.17h-8.01v-37.91h16.66c8.27,0,12.72,4.55,12.72,10.41c0,5.09-2.77,7.84-5.51,8.97
			c1.88,0.69,4.71,2.65,4.71,9.43v1.87c0,2.55,0.02,5.45,0.54,7.23h-7.77c-0.67-1.65-0.79-4.49-0.79-8.51v-0.55
			c0-4.15-1.05-6.11-7.16-6.11H1144.5z M1144.5,454.5h6.87c4.49,0,6.22-1.71,6.22-4.88c0-3.08-2.01-4.81-6.02-4.81h-7.07V454.5z"/>
		<path d="M1171.05,476.2v-9.66h8.46v9.66H1171.05z"/>
		<path d="M1186.7,438.29h8.2v31.19h18.89l-0.94,6.72h-26.15V438.29z"/>
		<path d="M1217.09,476.2v-9.66h8.46v9.66H1217.09z"/>
	</g>
</g>
</svg>
